<svg width="24" height="24" viewBox="0 0 24 24" fill="none" xmlns="http://www.w3.org/2000/svg">
<path fill-rule="evenodd" clip-rule="evenodd" d="M4.60517 8.89083C5.43627 5.23826 8.5457 3.39353 11.7248 3.39568C14.9041 3.39782 18.0116 5.24699 18.8383 8.8998L18.8383 8.89983C19.822 13.2449 17.13 17.004 14.5881 19.445L14.5868 19.4463C12.9878 20.9895 10.457 20.9914 8.84687 19.4457C6.31409 17.0046 3.62163 13.2362 4.60517 8.89083ZM11.7257 2C15.4294 2.00251 19.2026 4.18682 20.1996 8.59168C21.3558 13.6994 18.1682 17.9417 15.5557 20.4508C13.4144 22.5172 10.0283 22.5153 7.87949 20.4517L7.87861 20.4508C5.27544 17.942 2.08774 13.6901 3.24401 8.58238L3.24417 8.58166C4.2462 4.17682 8.02197 1.9975 11.7257 2ZM9.51632 10.4298C9.51632 9.21194 10.5036 8.22465 11.7215 8.22465C12.9394 8.22465 13.9267 9.21194 13.9267 10.4298C13.9267 11.6477 12.9394 12.635 11.7215 12.635C10.5036 12.635 9.51632 11.6477 9.51632 10.4298ZM11.7215 6.82898C9.7328 6.82898 8.12065 8.44113 8.12065 10.4298C8.12065 12.4185 9.7328 14.0307 11.7215 14.0307C13.7102 14.0307 15.3223 12.4185 15.3223 10.4298C15.3223 8.44113 13.7102 6.82898 11.7215 6.82898Z" fill="#A3D139"/>
</svg>
