<svg width="390" height="54" viewBox="0 0 390 54" fill="none" xmlns="http://www.w3.org/2000/svg">
<path d="M16.96 7.68L39.04 32.52V7.2H39.64V39.6H39.04V33.42L16.36 7.98C16.32 7.94 16.26 7.9 16.18 7.86C16.14 7.82 16.1 7.8 16.06 7.8C16.02 7.8 15.98 7.82 15.94 7.86C15.94 7.9 15.94 7.94 15.94 7.98V39.6H15.34V7.86C15.34 7.62 15.42 7.44 15.58 7.32C15.74 7.2 15.9 7.14 16.06 7.14C16.22 7.14 16.36 7.18 16.48 7.26C16.6 7.34 16.76 7.48 16.96 7.68ZM20.2 45C20.96 45 21.5 44.84 21.82 44.52C22.18 44.16 22.36 43.6 22.36 42.84V23.04L32.62 35.46V42.84C32.62 43.6 32.78 44.16 33.1 44.52C33.46 44.84 34.02 45 34.78 45H43.78C44.54 45 45.08 44.84 45.4 44.52C45.76 44.16 45.94 43.6 45.94 42.84V3.96C45.94 3.2 45.76 2.66 45.4 2.34C45.08 1.98 44.54 1.8 43.78 1.8H34.78C34.02 1.8 33.46 1.98 33.1 2.34C32.78 2.66 32.62 3.2 32.62 3.96V16.74L20.98 3.42C20.46 2.82 19.92 2.4 19.36 2.16C18.84 1.92 18.2 1.8 17.44 1.8H11.2C10.44 1.8 9.88 1.98 9.52 2.34C9.2 2.66 9.04 3.2 9.04 3.96V42.84C9.04 43.6 9.2 44.16 9.52 44.52C9.88 44.84 10.44 45 11.2 45H20.2ZM22.12 45.06L14.32 51.54C14.16 51.7 13.9 51.84 13.54 51.96C13.22 52.08 12.86 52.14 12.46 52.14H3.46C2.5 52.14 1.8 51.92 1.36 51.48C0.92 51.04 0.7 50.34 0.7 49.38V10.5C0.7 9.98 0.76 9.54 0.88 9.18C1.04 8.82 1.26 8.52 1.54 8.28L9.28 1.74C9.48 1.58 9.74 1.46 10.06 1.38C10.42 1.26 10.8 1.2 11.2 1.2H17.44C18.32 1.2 19.06 1.34 19.66 1.62C20.26 1.9 20.86 2.36 21.46 3L25.6 7.8L32.86 1.74C33.06 1.58 33.32 1.46 33.64 1.38C34 1.26 34.38 1.2 34.78 1.2H43.78C44.74 1.2 45.44 1.42 45.88 1.86C46.32 2.3 46.54 3 46.54 3.96V42.84C46.54 43.36 46.46 43.8 46.3 44.16C46.18 44.52 45.98 44.82 45.7 45.06L37.9 51.54C37.74 51.7 37.48 51.84 37.12 51.96C36.8 52.08 36.44 52.14 36.04 52.14H27.04C26.08 52.14 25.38 51.92 24.94 51.48C24.5 51.04 24.28 50.34 24.28 49.38V42.24L22.96 40.62V42.84C22.96 43.36 22.88 43.8 22.72 44.16C22.6 44.52 22.4 44.82 22.12 45.06ZM66.2523 26.82V28.68H89.6523V26.82C89.6523 25.74 89.5523 24.74 89.3523 23.82C89.1923 22.9 88.9723 22.04 88.6923 21.24L84.5523 11.46C84.1123 10.42 83.6523 9.56 83.1723 8.88C82.6923 8.16 81.8923 7.8 80.7723 7.8H74.8923C73.6923 7.8 72.8523 8.16 72.3723 8.88C71.8923 9.56 71.4523 10.4 71.0523 11.4L67.2123 21.24C66.9323 22.04 66.6923 22.9 66.4923 23.82C66.3323 24.74 66.2523 25.74 66.2523 26.82ZM75.8523 14.4C76.0123 14.04 76.1723 13.78 76.3323 13.62C76.5323 13.46 76.7523 13.38 76.9923 13.38H78.4923C78.7323 13.38 78.9323 13.46 79.0923 13.62C79.2923 13.78 79.4723 14.04 79.6323 14.4L82.4523 23.52H73.0323L75.8523 14.4ZM89.6523 39.6V29.28H66.2523V39.6H65.6523V26.82C65.6523 25.7 65.7323 24.68 65.8923 23.76C66.0923 22.8 66.3523 21.88 66.6723 21L70.5123 11.16C70.9523 10.04 71.4523 9.1 72.0123 8.34C72.5723 7.58 73.5323 7.2 74.8923 7.2H80.7723C82.0923 7.2 83.0123 7.58 83.5323 8.34C84.0923 9.1 84.6123 10.06 85.0923 11.22L89.2323 21C89.5523 21.88 89.7923 22.8 89.9523 23.76C90.1523 24.68 90.2523 25.7 90.2523 26.82V39.6H89.6523ZM72.4323 42.84V34.44H83.0523V42.84C83.0523 43.6 83.2323 44.16 83.5923 44.52C83.9923 44.84 84.5923 45 85.3923 45H94.4523C95.2123 45 95.7523 44.84 96.0723 44.52C96.4323 44.16 96.6123 43.6 96.6123 42.84V27C96.6123 25.8 96.4123 24.42 96.0123 22.86C95.6523 21.3 95.0723 19.48 94.2723 17.4L89.0523 3.78C88.8123 3.1 88.4323 2.6 87.9123 2.28C87.4323 1.96 86.8123 1.8 86.0523 1.8H69.9123C69.1123 1.8 68.4523 1.96 67.9323 2.28C67.4523 2.6 67.0923 3.1 66.8523 3.78L61.6323 17.4C60.8323 19.48 60.2323 21.3 59.8323 22.86C59.4723 24.42 59.2923 25.8 59.2923 27V42.84C59.2923 43.6 59.4523 44.16 59.7723 44.52C60.1323 44.84 60.6923 45 61.4523 45H70.2723C71.0323 45 71.5723 44.84 71.8923 44.52C72.2523 44.16 72.4323 43.6 72.4323 42.84ZM64.3923 51.54C64.2323 51.7 63.9723 51.84 63.6123 51.96C63.2923 52.08 62.9323 52.14 62.5323 52.14H53.7123C52.7523 52.14 52.0523 51.92 51.6123 51.48C51.1723 51.04 50.9523 50.34 50.9523 49.38V33.54C50.9523 32.3 51.1323 30.9 51.4923 29.34C51.8923 27.74 52.5123 25.86 53.3523 23.7L58.5123 10.14C58.6323 9.78 58.7723 9.48 58.9323 9.24C59.1323 8.96 59.3323 8.72 59.5323 8.52L59.5923 8.46L67.2723 2.04C67.5923 1.76 67.9723 1.56 68.4123 1.44C68.8523 1.28 69.3523 1.2 69.9123 1.2H86.0523C86.9723 1.2 87.7123 1.4 88.2723 1.8C88.8723 2.16 89.3123 2.74 89.5923 3.54L94.8123 17.16C95.6523 19.32 96.2523 21.2 96.6123 22.8C97.0123 24.36 97.2123 25.76 97.2123 27V42.84C97.2123 43.36 97.1323 43.8 96.9723 44.16C96.8523 44.52 96.6523 44.82 96.3723 45.06L88.5723 51.54C88.4123 51.7 88.1523 51.84 87.7923 51.96C87.4723 52.08 87.1123 52.14 86.7123 52.14H77.6523C76.6523 52.14 75.9123 51.9 75.4323 51.42C74.9523 50.98 74.7123 50.3 74.7123 49.38V41.58H73.0323V42.84C73.0323 43.36 72.9523 43.8 72.7923 44.16C72.6723 44.52 72.4723 44.82 72.1923 45.06L64.3923 51.54ZM132.257 52.14H104.417C103.457 52.14 102.757 51.92 102.317 51.48C101.877 51.04 101.657 50.34 101.657 49.38V10.5C101.657 9.98 101.717 9.54 101.837 9.18C101.997 8.82 102.217 8.52 102.497 8.28L110.237 1.74C110.437 1.58 110.697 1.46 111.017 1.38C111.377 1.26 111.757 1.2 112.157 1.2H139.997C140.957 1.2 141.657 1.42 142.097 1.86C142.537 2.3 142.757 3 142.757 3.96V10.98C142.757 11.5 142.677 11.94 142.517 12.3C142.397 12.66 142.197 12.96 141.917 13.2L136.757 17.46C137.157 17.66 137.437 17.96 137.597 18.36C137.797 18.76 137.897 19.28 137.897 19.92V26.34C137.897 26.86 137.817 27.3 137.657 27.66C137.537 28.02 137.337 28.32 137.057 28.56L131.717 33.06H139.997C140.957 33.06 141.657 33.28 142.097 33.72C142.537 34.16 142.757 34.86 142.757 35.82V42.84C142.757 43.36 142.677 43.8 142.517 44.16C142.397 44.52 142.197 44.82 141.917 45.06L134.117 51.54C133.957 51.7 133.697 51.84 133.337 51.96C133.017 52.08 132.657 52.14 132.257 52.14ZM139.997 45C140.757 45 141.297 44.84 141.617 44.52C141.977 44.16 142.157 43.6 142.157 42.84V35.82C142.157 35.06 141.977 34.52 141.617 34.2C141.297 33.84 140.757 33.66 139.997 33.66H123.437V28.5H135.137C135.897 28.5 136.437 28.34 136.757 28.02C137.117 27.66 137.297 27.1 137.297 26.34V19.92C137.297 19.16 137.117 18.62 136.757 18.3C136.437 17.94 135.897 17.76 135.137 17.76H123.437V13.14H139.997C140.757 13.14 141.297 12.98 141.617 12.66C141.977 12.3 142.157 11.74 142.157 10.98V3.96C142.157 3.2 141.977 2.66 141.617 2.34C141.297 1.98 140.757 1.8 139.997 1.8H112.157C111.397 1.8 110.837 1.98 110.477 2.34C110.157 2.66 109.997 3.2 109.997 3.96V42.84C109.997 43.6 110.157 44.16 110.477 44.52C110.837 44.84 111.397 45 112.157 45H139.997ZM136.757 39V39.6H116.537V7.2H136.757V7.8H117.137V22.86H131.897V23.46H117.137V39H136.757ZM163.211 53.04C159.571 53.04 156.571 52.62 154.211 51.78C151.891 50.98 150.051 49.9 148.691 48.54C147.371 47.18 146.451 45.62 145.931 43.86C145.451 42.1 145.211 40.28 145.211 38.4V30.48C145.211 29.96 145.271 29.52 145.391 29.16C145.551 28.76 145.751 28.46 145.991 28.26L153.791 21.72C153.991 21.56 154.251 21.44 154.571 21.36C154.891 21.24 155.271 21.18 155.711 21.18H164.411C164.851 21.18 165.231 21.24 165.551 21.36C165.911 21.44 166.211 21.58 166.451 21.78V10.5C166.451 9.98 166.511 9.54 166.631 9.18C166.791 8.82 167.011 8.52 167.291 8.28L175.031 1.74C175.231 1.58 175.491 1.46 175.811 1.38C176.171 1.26 176.551 1.2 176.951 1.2H186.371C187.331 1.2 188.031 1.42 188.471 1.86C188.911 2.3 189.131 3 189.131 3.96V33.66C189.131 35.54 188.851 37.28 188.291 38.88C187.771 40.44 186.831 41.78 185.471 42.9L177.731 49.44C176.371 50.56 174.531 51.44 172.211 52.08C169.891 52.72 166.891 53.04 163.211 53.04ZM188.531 33.66V3.96C188.531 3.2 188.351 2.66 187.991 2.34C187.671 1.98 187.131 1.8 186.371 1.8H176.951C176.191 1.8 175.631 1.98 175.271 2.34C174.951 2.66 174.791 3.2 174.791 3.96V31.26C174.791 32.06 174.551 32.74 174.071 33.3C173.631 33.82 172.551 34.08 170.831 34.08C168.991 34.08 167.811 33.82 167.291 33.3C166.811 32.74 166.571 32.06 166.571 31.26V23.94C166.571 23.18 166.391 22.64 166.031 22.32C165.711 21.96 165.171 21.78 164.411 21.78H155.711C154.951 21.78 154.391 21.96 154.031 22.32C153.711 22.64 153.551 23.18 153.551 23.94V33.66C153.551 35.5 153.791 37.18 154.271 38.7C154.791 40.18 155.691 41.46 156.971 42.54C158.291 43.58 160.071 44.4 162.311 45C164.591 45.6 167.471 45.9 170.951 45.9C174.471 45.9 177.371 45.6 179.651 45C181.931 44.4 183.711 43.58 184.991 42.54C186.311 41.46 187.231 40.18 187.751 38.7C188.271 37.18 188.531 35.5 188.531 33.66ZM181.331 7.2H181.931V32.22C181.931 34.58 181.171 36.52 179.651 38.04C178.171 39.56 175.311 40.32 171.071 40.32C168.831 40.32 166.971 40.12 165.491 39.72C164.051 39.32 162.911 38.78 162.071 38.1C161.231 37.38 160.631 36.52 160.271 35.52C159.951 34.52 159.791 33.42 159.791 32.22V27.48H160.391V32.22C160.391 34.5 161.131 36.32 162.611 37.68C164.131 39.04 166.951 39.72 171.071 39.72C175.031 39.72 177.731 39.04 179.171 37.68C180.611 36.28 181.331 34.46 181.331 32.22V7.2ZM208.577 26.82V28.68H231.977V26.82C231.977 25.74 231.877 24.74 231.677 23.82C231.517 22.9 231.297 22.04 231.017 21.24L226.877 11.46C226.437 10.42 225.977 9.56 225.497 8.88C225.017 8.16 224.217 7.8 223.097 7.8H217.217C216.017 7.8 215.177 8.16 214.697 8.88C214.217 9.56 213.777 10.4 213.377 11.4L209.537 21.24C209.257 22.04 209.017 22.9 208.817 23.82C208.657 24.74 208.577 25.74 208.577 26.82ZM218.177 14.4C218.337 14.04 218.497 13.78 218.657 13.62C218.857 13.46 219.077 13.38 219.317 13.38H220.817C221.057 13.38 221.257 13.46 221.417 13.62C221.617 13.78 221.797 14.04 221.957 14.4L224.777 23.52H215.357L218.177 14.4ZM231.977 39.6V29.28H208.577V39.6H207.977V26.82C207.977 25.7 208.057 24.68 208.217 23.76C208.417 22.8 208.677 21.88 208.997 21L212.837 11.16C213.277 10.04 213.777 9.1 214.337 8.34C214.897 7.58 215.857 7.2 217.217 7.2H223.097C224.417 7.2 225.337 7.58 225.857 8.34C226.417 9.1 226.937 10.06 227.417 11.22L231.557 21C231.877 21.88 232.117 22.8 232.277 23.76C232.477 24.68 232.577 25.7 232.577 26.82V39.6H231.977ZM214.757 42.84V34.44H225.377V42.84C225.377 43.6 225.557 44.16 225.917 44.52C226.317 44.84 226.917 45 227.717 45H236.777C237.537 45 238.077 44.84 238.397 44.52C238.757 44.16 238.937 43.6 238.937 42.84V27C238.937 25.8 238.737 24.42 238.337 22.86C237.977 21.3 237.397 19.48 236.597 17.4L231.377 3.78C231.137 3.1 230.757 2.6 230.237 2.28C229.757 1.96 229.137 1.8 228.377 1.8H212.237C211.437 1.8 210.777 1.96 210.257 2.28C209.777 2.6 209.417 3.1 209.177 3.78L203.957 17.4C203.157 19.48 202.557 21.3 202.157 22.86C201.797 24.42 201.617 25.8 201.617 27V42.84C201.617 43.6 201.777 44.16 202.097 44.52C202.457 44.84 203.017 45 203.777 45H212.597C213.357 45 213.897 44.84 214.217 44.52C214.577 44.16 214.757 43.6 214.757 42.84ZM206.717 51.54C206.557 51.7 206.297 51.84 205.937 51.96C205.617 52.08 205.257 52.14 204.857 52.14H196.037C195.077 52.14 194.377 51.92 193.937 51.48C193.497 51.04 193.277 50.34 193.277 49.38V33.54C193.277 32.3 193.457 30.9 193.817 29.34C194.217 27.74 194.837 25.86 195.677 23.7L200.837 10.14C200.957 9.78 201.097 9.48 201.257 9.24C201.457 8.96 201.657 8.72 201.857 8.52L201.917 8.46L209.597 2.04C209.917 1.76 210.297 1.56 210.737 1.44C211.177 1.28 211.677 1.2 212.237 1.2H228.377C229.297 1.2 230.037 1.4 230.597 1.8C231.197 2.16 231.637 2.74 231.917 3.54L237.137 17.16C237.977 19.32 238.577 21.2 238.937 22.8C239.337 24.36 239.537 25.76 239.537 27V42.84C239.537 43.36 239.457 43.8 239.297 44.16C239.177 44.52 238.977 44.82 238.697 45.06L230.897 51.54C230.737 51.7 230.477 51.84 230.117 51.96C229.797 52.08 229.437 52.14 229.037 52.14H219.977C218.977 52.14 218.237 51.9 217.757 51.42C217.277 50.98 217.037 50.3 217.037 49.38V41.58H215.357V42.84C215.357 43.36 215.277 43.8 215.117 44.16C214.997 44.52 214.797 44.82 214.517 45.06L206.717 51.54ZM260.241 7.68L282.321 32.52V7.2H282.921V39.6H282.321V33.42L259.641 7.98C259.601 7.94 259.541 7.9 259.461 7.86C259.421 7.82 259.381 7.8 259.341 7.8C259.301 7.8 259.261 7.82 259.221 7.86C259.221 7.9 259.221 7.94 259.221 7.98V39.6H258.621V7.86C258.621 7.62 258.701 7.44 258.861 7.32C259.021 7.2 259.181 7.14 259.341 7.14C259.501 7.14 259.641 7.18 259.761 7.26C259.881 7.34 260.041 7.48 260.241 7.68ZM263.481 45C264.241 45 264.781 44.84 265.101 44.52C265.461 44.16 265.641 43.6 265.641 42.84V23.04L275.901 35.46V42.84C275.901 43.6 276.061 44.16 276.381 44.52C276.741 44.84 277.301 45 278.061 45H287.061C287.821 45 288.361 44.84 288.681 44.52C289.041 44.16 289.221 43.6 289.221 42.84V3.96C289.221 3.2 289.041 2.66 288.681 2.34C288.361 1.98 287.821 1.8 287.061 1.8H278.061C277.301 1.8 276.741 1.98 276.381 2.34C276.061 2.66 275.901 3.2 275.901 3.96V16.74L264.261 3.42C263.741 2.82 263.201 2.4 262.641 2.16C262.121 1.92 261.481 1.8 260.721 1.8H254.481C253.721 1.8 253.161 1.98 252.801 2.34C252.481 2.66 252.321 3.2 252.321 3.96V42.84C252.321 43.6 252.481 44.16 252.801 44.52C253.161 44.84 253.721 45 254.481 45H263.481ZM265.401 45.06L257.601 51.54C257.441 51.7 257.181 51.84 256.821 51.96C256.501 52.08 256.141 52.14 255.741 52.14H246.741C245.781 52.14 245.081 51.92 244.641 51.48C244.201 51.04 243.981 50.34 243.981 49.38V10.5C243.981 9.98 244.041 9.54 244.161 9.18C244.321 8.82 244.541 8.52 244.821 8.28L252.561 1.74C252.761 1.58 253.021 1.46 253.341 1.38C253.701 1.26 254.081 1.2 254.481 1.2H260.721C261.601 1.2 262.341 1.34 262.941 1.62C263.541 1.9 264.141 2.36 264.741 3L268.881 7.8L276.141 1.74C276.341 1.58 276.601 1.46 276.921 1.38C277.281 1.26 277.661 1.2 278.061 1.2H287.061C288.021 1.2 288.721 1.42 289.161 1.86C289.601 2.3 289.821 3 289.821 3.96V42.84C289.821 43.36 289.741 43.8 289.581 44.16C289.461 44.52 289.261 44.82 288.981 45.06L281.181 51.54C281.021 51.7 280.761 51.84 280.401 51.96C280.081 52.08 279.721 52.14 279.321 52.14H270.321C269.361 52.14 268.661 51.92 268.221 51.48C267.781 51.04 267.561 50.34 267.561 49.38V42.24L266.241 40.62V42.84C266.241 43.36 266.161 43.8 266.001 44.16C265.881 44.52 265.681 44.82 265.401 45.06ZM328.734 52.14H309.834C304.594 52.14 300.714 50.78 298.194 48.06C295.714 45.34 294.474 41.82 294.474 37.5V20.58C294.474 18.38 294.794 16.48 295.434 14.88C296.074 13.28 297.014 11.94 298.254 10.86L305.994 4.32C307.234 3.28 308.814 2.5 310.734 1.98C312.694 1.46 314.974 1.2 317.574 1.2H332.574C333.534 1.2 334.234 1.42 334.674 1.86C335.114 2.3 335.334 3 335.334 3.96V11.22C335.334 11.74 335.254 12.18 335.094 12.54C334.974 12.9 334.774 13.2 334.494 13.44L326.694 19.92C326.534 20.08 326.274 20.22 325.914 20.34C325.594 20.46 325.234 20.52 324.834 20.52H317.034V29.16C317.074 29.08 317.134 29 317.214 28.92C317.334 28.8 317.434 28.7 317.514 28.62L325.254 22.08C325.454 21.92 325.714 21.8 326.034 21.72C326.394 21.6 326.774 21.54 327.174 21.54H336.474C337.434 21.54 338.134 21.76 338.574 22.2C339.014 22.64 339.234 23.34 339.234 24.3V42.84C339.234 43.36 339.154 43.8 338.994 44.16C338.874 44.52 338.674 44.82 338.394 45.06L330.594 51.54C330.434 51.7 330.174 51.84 329.814 51.96C329.494 52.08 329.134 52.14 328.734 52.14ZM336.474 45C337.234 45 337.774 44.84 338.094 44.52C338.454 44.16 338.634 43.6 338.634 42.84V24.3C338.634 23.54 338.454 23 338.094 22.68C337.774 22.32 337.234 22.14 336.474 22.14H327.174C326.414 22.14 325.854 22.32 325.494 22.68C325.174 23 325.014 23.54 325.014 24.3V33.66H319.194C318.274 33.66 317.574 33.42 317.094 32.94C316.654 32.46 316.434 31.72 316.434 30.72V16.38C316.434 15.38 316.734 14.64 317.334 14.16C317.934 13.64 318.854 13.38 320.094 13.38H332.574C333.334 13.38 333.874 13.22 334.194 12.9C334.554 12.54 334.734 11.98 334.734 11.22V3.96C334.734 3.2 334.554 2.66 334.194 2.34C333.874 1.98 333.334 1.8 332.574 1.8H317.574C312.574 1.8 308.854 2.8 306.414 4.8C304.014 6.8 302.814 9.88 302.814 14.04V32.76C302.814 36.92 304.014 40 306.414 42C308.854 44 312.574 45 317.574 45H336.474ZM320.154 39.6C317.954 39.6 316.154 39.46 314.754 39.18C313.354 38.9 312.254 38.46 311.454 37.86C310.654 37.22 310.094 36.42 309.774 35.46C309.494 34.46 309.354 33.26 309.354 31.86V15.06C309.354 12.22 309.994 10.2 311.274 9C312.554 7.8 315.114 7.2 318.954 7.2H329.334V7.8H318.954C315.434 7.8 313.054 8.36 311.814 9.48C310.574 10.56 309.954 12.42 309.954 15.06V31.86C309.954 34.46 310.634 36.3 311.994 37.38C313.394 38.46 316.114 39 320.154 39H331.494V27.54H332.094V39.6H320.154ZM377.791 49.26C376.391 50.46 374.431 51.38 371.911 52.02C369.391 52.7 366.151 53.04 362.191 53.04C358.271 53.04 355.051 52.62 352.531 51.78C350.051 50.98 348.091 49.9 346.651 48.54C345.251 47.18 344.271 45.62 343.711 43.86C343.191 42.1 342.931 40.28 342.931 38.4V19.74C342.931 17.9 343.191 16.2 343.711 14.64C344.231 13.04 345.171 11.68 346.531 10.56L354.331 4.08C355.731 2.88 357.671 1.96 360.151 1.32C362.671 0.639997 365.931 0.299996 369.931 0.299996C373.851 0.299996 377.051 0.619997 379.531 1.26C382.051 1.9 384.011 2.8 385.411 3.96C386.851 5.08 387.831 6.44 388.351 8.04C388.871 9.6 389.131 11.32 389.131 13.2V33.66C389.131 35.5 388.871 37.2 388.351 38.76C387.831 40.32 386.891 41.66 385.531 42.78L377.791 49.26ZM388.531 33.66V13.2C388.531 11.36 388.251 9.7 387.691 8.22C387.171 6.7 386.211 5.4 384.811 4.32C383.451 3.24 381.551 2.4 379.111 1.8C376.711 1.2 373.651 0.899999 369.931 0.899999C366.211 0.899999 363.131 1.2 360.691 1.8C358.251 2.4 356.331 3.24 354.931 4.32C353.571 5.4 352.611 6.7 352.051 8.22C351.531 9.7 351.271 11.36 351.271 13.2V33.66C351.271 35.5 351.531 37.18 352.051 38.7C352.611 40.18 353.571 41.46 354.931 42.54C356.331 43.58 358.251 44.4 360.691 45C363.131 45.6 366.211 45.9 369.931 45.9C373.651 45.9 376.711 45.6 379.111 45C381.551 44.4 383.451 43.58 384.811 42.54C386.211 41.46 387.171 40.18 387.691 38.7C388.251 37.18 388.531 35.5 388.531 33.66ZM381.991 32.28C381.991 34.68 381.131 36.64 379.411 38.16C377.691 39.64 374.491 40.38 369.811 40.38C365.131 40.38 361.951 39.64 360.271 38.16C358.591 36.64 357.751 34.68 357.751 32.28V14.58C357.751 12.18 358.591 10.24 360.271 8.76C361.951 7.24 365.131 6.48 369.811 6.48C374.491 6.48 377.691 7.24 379.411 8.76C381.131 10.24 381.991 12.18 381.991 14.58V32.28ZM358.351 32.28C358.351 34.52 359.151 36.34 360.751 37.74C362.351 39.1 365.371 39.78 369.811 39.78C374.251 39.78 377.291 39.1 378.931 37.74C380.571 36.34 381.391 34.52 381.391 32.28V14.58C381.391 12.34 380.571 10.54 378.931 9.18C377.291 7.78 374.251 7.08 369.811 7.08C365.371 7.08 362.351 7.78 360.751 9.18C359.151 10.54 358.351 12.34 358.351 14.58V32.28ZM364.891 31.5V15.36C364.891 14.6 365.191 13.96 365.791 13.44C366.391 12.88 367.771 12.6 369.931 12.6C372.091 12.6 373.471 12.88 374.071 13.44C374.671 13.96 374.971 14.6 374.971 15.36V31.5C374.971 32.3 374.671 32.98 374.071 33.54C373.471 34.06 372.091 34.32 369.931 34.32C367.771 34.32 366.391 34.06 365.791 33.54C365.191 32.98 364.891 32.3 364.891 31.5ZM365.491 31.5C365.491 31.9 365.571 32.26 365.731 32.58C365.891 32.86 366.191 33.1 366.631 33.3V21.9C366.631 21.5 366.551 21.16 366.391 20.88C366.231 20.56 365.931 20.32 365.491 20.16V31.5Z" fill="white"/>
</svg>
